<svg width="80" height="80" viewBox="0 0 80 80" fill="none" xmlns="http://www.w3.org/2000/svg">
  <path fill-rule="evenodd" clip-rule="evenodd" d="M16.6666 3.33337C13.1304 3.33337 9.73898 4.73813 7.2385 7.23862C4.73801 9.7391 3.33325 13.1305 3.33325 16.6667V63.3334C3.33325 66.8696 4.73801 70.261 7.2385 72.7615C9.73898 75.262 13.1304 76.6667 16.6666 76.6667H63.3333C66.8695 76.6667 70.2609 75.262 72.7613 72.7615C75.2618 70.261 76.6666 66.8696 76.6666 63.3334V16.6667C76.6666 13.1305 75.2618 9.7391 72.7613 7.23862C70.2609 4.73813 66.8695 3.33337 63.3333 3.33337H16.6666ZM57.0466 15H22.9533C19.1866 15 16.1366 18.0534 16.1366 21.8167V58.1834C16.1366 61.95 19.1899 65 22.9533 65H57.0466C60.8133 65 63.8633 61.9467 63.8633 58.18V21.8167C63.8633 18.05 60.8099 15 57.0466 15ZM54.2033 58.18V27.5H57.6133V58.18H54.2033ZM47.8399 41.1367V58.1834H51.2499V41.1334L47.8399 41.1367ZM22.3866 58.1834V47.9534H25.7966V58.1834H22.3866ZM32.1599 58.1834V38.8634H28.7499V58.18L32.1599 58.1834ZM35.1133 58.1834V44.5467H38.5233V58.18L35.1133 58.1834ZM41.4799 34.3167V58.1834H44.8866V34.3167H41.4766H41.4799ZM27.4999 21.82C27.4999 20.5667 28.5166 19.55 29.7733 19.55H50.2266C50.5322 19.5383 50.8371 19.5884 51.1229 19.6973C51.4087 19.8062 51.6697 19.9716 51.89 20.1837C52.1104 20.3958 52.2857 20.6502 52.4055 20.9317C52.5252 21.2131 52.587 21.5158 52.587 21.8217C52.587 22.1276 52.5252 22.4303 52.4055 22.7117C52.2857 22.9932 52.1104 23.2476 51.89 23.4597C51.6697 23.6718 51.4087 23.8372 51.1229 23.9461C50.8371 24.055 50.5322 24.1051 50.2266 24.0934H29.7733C29.1703 24.0934 28.5921 23.8539 28.1658 23.4275C27.7394 23.0012 27.4999 22.423 27.4999 21.82Z" fill="#FFFFFF"/>
</svg>
